<svg xmlns="http://www.w3.org/2000/svg" fill="#2323de" viewBox="0 0 1024 768">
  <!-- The group scales the inside path relative to its own center boundary -->
  <g style="transform: scale(1.5); transform-origin: center; transform-box: fill-box;">
    <path d="m336.263 225.379 4.216-.01c3.794-.01 7.587-.006 11.38 0 3.984.005 7.968 0 11.951-.003q10.033-.004 20.063.011 11.573.014 23.144-.004 9.963-.013 19.926-.004 5.939.006 11.877-.003 5.584-.008 11.17.01c2.005.004 4.01-.002 6.016-.008 11.101.051 20.15 1.331 29.158 8.27 6.617 6.854 9.46 14.134 9.404 23.515l.021 2.492c.018 2.701.015 5.402.01 8.103l.015 5.676q.013 5.94-.003 11.882c-.011 5.051.01 10.102.038 15.153.018 3.907.018 7.814.012 11.721q0 2.791.019 5.583c.073 12.751-.123 24.361-9.452 34.153-6.915 5.775-14.392 7.835-23.247 7.87l-3.772.022-4.115.008-4.352.02q-7.137.028-14.272.041l-4.926.012q-11.575.03-23.151.042-13.332.016-26.663.076-10.323.044-20.647.049c-4.105.002-8.21.01-12.314.036q-5.799.035-11.597.017-2.118 0-4.234.02c-10.31.095-20.595-.846-28.648-7.99-10.175-10.315-9.887-22.724-9.824-36.282q-.009-2.856-.022-5.714-.016-5.96.014-11.92a1201 1201 0 0 0-.045-15.19c-.025-3.928-.023-7.855-.012-11.783q.003-2.8-.023-5.597c-.09-11.672.283-21.896 8.623-31.024 9.719-9.071 21.692-9.289 34.262-9.25m224.169 1.112 3.827-.022 4.177-.008 4.416-.02c4.827-.02 9.654-.031 14.481-.041l4.997-.012q11.74-.03 23.48-.042 13.526-.015 27.05-.077 10.473-.044 20.944-.048c4.164-.002 8.328-.011 12.492-.036q5.882-.035 11.763-.018 2.149.001 4.298-.02c11.01-.1 20.186 1.54 28.984 8.519 6.945 7.51 8.964 16.728 9.001 26.601l.02 2.28q.029 3.719.042 7.439l.012 2.582q.03 6.77.045 13.54c.01 4.635.045 9.269.085 13.903.026 3.587.034 7.174.038 10.761q.007 2.56.035 5.12c.127 12.364-.479 24.076-8.762 34.063-9.295 9.251-21.071 8.984-33.432 8.974l-4.423.02c-3.981.018-7.963.022-11.944.024q-3.738.002-7.476.01-13.058.029-26.115.026c-8.097-.001-16.193.02-24.29.051q-10.453.038-20.907.036c-4.155 0-8.309.005-12.464.026q-5.86.029-11.72.005-2.143-.003-4.285.015c-11.32.09-19.43-1.637-27.843-9.445-6.627-7.61-7.944-16.06-7.938-25.85l-.01-2.293c-.01-2.489-.011-4.978-.013-7.467l-.01-5.223q-.008-5.467-.007-10.937c0-4.653-.013-9.306-.03-13.96q-.016-5.392-.013-10.786-.002-2.573-.014-5.144c-.101-24.816-.101-24.816 8.914-34.126 6.88-6.18 13.425-8.384 22.595-8.42M296.165 519.638h196v23h-196zm0-37h196v23h-196zm235-36h196v23h-196zm-235-37h196v23h-196zm235-36h196v23h-196zm0 147h196v22h-196zm0-37h196v22h-196zm-235-37h196v22h-196zm235-36h196v22h-196zm-235-37h196v22h-196z"/>
  </g>
</svg>